<svg xmlns="http://www.w3.org/2000/svg" xmlns:xlink="http://www.w3.org/1999/xlink" width="336" zoomAndPan="magnify" viewBox="0 0 252 143.999998" height="192" preserveAspectRatio="xMidYMid meet" version="1.0"><defs><g/></defs><g fill="#000000" fill-opacity="1"><g transform="translate(18.777495, 92.831698)"><g><path d="M 17.757812 0.511719 C 28.015625 0.511719 37.507812 -5.613281 37.507812 -15.566406 C 37.507812 -25.160156 29.597656 -29.957031 18.117188 -30.773438 C 12.300781 -31.179688 2.960938 -30.621094 2.960938 -36.488281 C 2.960938 -42.101562 10.871094 -44.246094 18.320312 -44.246094 C 24.851562 -44.246094 31.640625 -42.511719 34.601562 -40.367188 L 36.691406 -48.125 C 33.527344 -50.675781 26.691406 -51.542969 21.433594 -51.542969 C 6.738281 -51.542969 2.09375 -43.378906 2.09375 -37.101562 C 2.09375 -28.730469 6.328125 -23.933594 19.238281 -21.738281 C 26.640625 -20.464844 36.539062 -20.210938 36.539062 -14.136719 C 36.539062 -7.707031 27.097656 -6.53125 21.535156 -6.53125 C 14.289062 -6.53125 9.542969 -9.082031 4.082031 -12.453125 L 1.019531 -5.359375 C 3.980469 -2.398438 10.820312 0.511719 17.757812 0.511719 Z M 17.757812 0.511719 "/></g></g></g><g fill="#000000" fill-opacity="1"><g transform="translate(57.307232, 92.831698)"><g><path d="M 2.042969 -17.148438 C 2.042969 -4.132812 13.371094 0.511719 25.667969 0.511719 C 29.140625 0.511719 31.742188 0 34.445312 -1.277344 L 37.507812 -10.15625 C 34.039062 -7.246094 29.753906 -6.890625 25.464844 -6.890625 C 14.035156 -6.890625 2.960938 -9.238281 2.960938 -16.738281 C 2.960938 -19.390625 4.949219 -20.972656 9.542969 -20.972656 C 16.226562 -20.972656 21.382812 -16.074219 28.9375 -16.332031 C 32.507812 -16.433594 35.722656 -18.832031 35.722656 -22.660156 C 35.722656 -32.8125 9.03125 -29.292969 9.03125 -38.988281 C 9.03125 -42.5625 12.195312 -44.347656 19.648438 -44.347656 C 26.179688 -44.347656 32.96875 -42.613281 35.925781 -40.46875 L 38.019531 -48.125 C 34.855469 -50.675781 26.078125 -51.542969 20.820312 -51.542969 C 6.125 -51.542969 3.265625 -44.601562 3.265625 -41.488281 C 3.265625 -33.9375 10.613281 -32.558594 17.808594 -30.824219 C 23.269531 -29.496094 31.996094 -27.914062 31.996094 -24.902344 C 31.996094 -23.730469 30.925781 -23.269531 29.753906 -23.269531 C 25.007812 -23.269531 21.128906 -26.84375 14.339844 -26.84375 C 7.398438 -26.84375 2.042969 -23.628906 2.042969 -17.148438 Z M 2.042969 -17.148438 "/></g></g></g><g fill="#000000" fill-opacity="1"><g transform="translate(96.449364, 92.831698)"><g><path d="M 10.972656 0 L 10.972656 -50.265625 L 21.894531 -50.265625 C 27.914062 -50.265625 30.3125 -46.59375 30.3125 -41.796875 C 30.3125 -28.425781 14.902344 -27.8125 14.902344 -22.863281 C 14.902344 -19.597656 21.433594 -9.492188 25.71875 -3.878906 C 28.375 -0.410156 28.527344 0 31.539062 0 L 39.957031 0 L 39.957031 -0.304688 C 36.285156 -0.304688 20.820312 -22.8125 20.820312 -26.332031 C 20.820312 -29.445312 37.714844 -29.957031 37.714844 -42.253906 C 37.714844 -46.441406 35.007812 -51.03125 29.445312 -51.03125 L 3.574219 -51.03125 L 3.574219 0 Z M 10.972656 0 "/></g></g></g><g fill="#000000" fill-opacity="1"><g transform="translate(136.408025, 92.831698)"><g><path d="M 2.042969 -17.148438 C 2.042969 -4.132812 13.371094 0.511719 25.667969 0.511719 C 29.140625 0.511719 31.742188 0 34.445312 -1.277344 L 37.507812 -10.15625 C 34.039062 -7.246094 29.753906 -6.890625 25.464844 -6.890625 C 14.035156 -6.890625 2.960938 -9.238281 2.960938 -16.738281 C 2.960938 -19.390625 4.949219 -20.972656 9.542969 -20.972656 C 16.226562 -20.972656 21.382812 -16.074219 28.9375 -16.332031 C 32.507812 -16.433594 35.722656 -18.832031 35.722656 -22.660156 C 35.722656 -32.8125 9.03125 -29.292969 9.03125 -38.988281 C 9.03125 -42.5625 12.195312 -44.347656 19.648438 -44.347656 C 26.179688 -44.347656 32.96875 -42.613281 35.925781 -40.46875 L 38.019531 -48.125 C 34.855469 -50.675781 26.078125 -51.542969 20.820312 -51.542969 C 6.125 -51.542969 3.265625 -44.601562 3.265625 -41.488281 C 3.265625 -33.9375 10.613281 -32.558594 17.808594 -30.824219 C 23.269531 -29.496094 31.996094 -27.914062 31.996094 -24.902344 C 31.996094 -23.730469 30.925781 -23.269531 29.753906 -23.269531 C 25.007812 -23.269531 21.128906 -26.84375 14.339844 -26.84375 C 7.398438 -26.84375 2.042969 -23.628906 2.042969 -17.148438 Z M 2.042969 -17.148438 "/></g></g></g><g fill="#000000" fill-opacity="1"><g transform="translate(175.550152, 92.831698)"><g><path d="M 3.574219 0 L 10.972656 0 L 10.972656 -51.03125 L 3.574219 -51.03125 Z M 3.574219 0 "/></g></g></g><g fill="#000000" fill-opacity="1"><g transform="translate(190.094483, 92.831698)"><g><path d="M 3.574219 0 L 14.1875 0 C 7.707031 -11.636719 4.492188 -25.109375 4.492188 -44.601562 C 4.492188 -44.601562 5.765625 -45.519531 8.625 -40.0625 C 10.105469 -37.203125 13.011719 -31.128906 17.914062 -21.792969 C 24.191406 -9.847656 30.976562 0.511719 37.253906 0.511719 C 37.96875 0.511719 38.988281 0.304688 39.550781 0 L 39.550781 -51.03125 L 28.9375 -51.03125 C 35.417969 -39.398438 38.632812 -25.925781 38.632812 -6.839844 C 38.632812 -6.839844 37.714844 -5.765625 34.957031 -8.726562 C 32.761719 -11.125 29.394531 -16.074219 24.292969 -25.515625 C 14.699219 -43.277344 13.472656 -51.542969 5.867188 -51.542969 C 5.15625 -51.542969 4.132812 -51.339844 3.574219 -51.03125 Z M 3.574219 0 "/></g></g></g></svg>