<svg class="w-full dark:fill-white" xmlns="http://www.w3.org/2000/svg" xmlns:xlink="http://www.w3.org/1999/xlink" width="0" height="100" zoomAndPan="magnify" viewBox="0 0 252 143.999998" height="192" preserveAspectRatio="xMidYMid meet" version="1.0"><defs><g/></defs><g  fill-opacity="1"><g transform="translate(19.711139, 90.443336)"><g><path d="M 15.898438 0.746094 C 29.804688 0.746094 35.636719 -9.320312 35.636719 -18.191406 C 35.636719 -25.867188 29.953125 -31.398438 21.582031 -32.195312 C 14.054688 -32.894531 4.636719 -33.890625 4.636719 -39.273438 C 4.636719 -41.167969 6.128906 -42.761719 7.972656 -42.761719 C 14.652344 -42.761719 19.238281 -36.78125 26.566406 -36.78125 C 32.644531 -36.78125 37.179688 -50.589844 33.691406 -50.589844 C 32.148438 -50.589844 31.152344 -48.59375 27.710938 -48.59375 C 23.175781 -48.59375 20.136719 -50.589844 16.25 -50.589844 C 7.875 -50.589844 0.847656 -43.808594 0.847656 -35.4375 C 0.847656 -24.921875 9.320312 -21.929688 19.1875 -18.890625 C 24.121094 -17.34375 28.558594 -14.953125 28.558594 -9.867188 C 28.558594 -6.03125 25.121094 -3.140625 21.28125 -3.140625 C 13.507812 -3.140625 14.402344 -10.367188 15.101562 -15.601562 C 15.351562 -17.492188 14.054688 -18.492188 12.558594 -18.539062 C 9.96875 -18.640625 0.5 -13.707031 0.5 -10.714844 C 0.5 -4.734375 7.574219 0.746094 15.898438 0.746094 Z M 15.898438 0.746094 "/></g></g></g><g fill="#000000" fill-opacity="1"><g transform="translate(56.592154, 90.443336)"><g><path d="M 1.246094 -24.921875 C 1.246094 -7.726562 10.265625 0.746094 21.429688 0.746094 C 32.046875 0.746094 38.027344 -8.820312 38.027344 -15.601562 C 38.027344 -17.894531 37.378906 -18.292969 36.78125 -18.292969 C 34.339844 -18.292969 34.089844 -10.914062 25.367188 -10.914062 C 18.441406 -10.914062 11.613281 -17.34375 8.621094 -26.515625 C 8.324219 -27.511719 8.074219 -29.304688 9.667969 -29.304688 C 13.804688 -29.304688 17.195312 -20.285156 24.570312 -20.285156 C 30.703125 -20.285156 33.09375 -25.320312 33.09375 -28.660156 C 33.09375 -30.253906 32.644531 -31.5 31.847656 -31.5 C 31 -31.5 30.503906 -29.554688 28.210938 -29.554688 C 24.320312 -29.554688 19.9375 -33.640625 15.003906 -33.640625 C 10.566406 -33.640625 9.417969 -31.050781 7.925781 -31.050781 C 6.578125 -31.050781 6.976562 -35.785156 6.976562 -36.734375 C 6.976562 -38.578125 7.726562 -42.761719 11.066406 -42.761719 C 17.542969 -42.761719 20.785156 -36.78125 29.65625 -36.78125 C 33.242188 -36.78125 35.636719 -41.019531 36.632812 -43.363281 C 38.027344 -46.601562 38.726562 -50.589844 36.78125 -50.589844 C 35.238281 -50.589844 34.242188 -48.59375 30.800781 -48.59375 C 26.265625 -48.59375 23.226562 -50.589844 19.339844 -50.589844 C 7.078125 -50.589844 1.246094 -37.28125 1.246094 -24.921875 Z M 1.246094 -24.921875 "/></g></g></g><g fill="#000000" fill-opacity="1"><g transform="translate(95.616252, 90.443336)"><g><path d="M 0.5 -49.839844 C 1.84375 -48.496094 2.242188 -46.800781 2.242188 -43.960938 L 2.242188 -24.921875 L 2.292969 -14.402344 L 2.292969 -5.882812 C 2.292969 -3.039062 1.894531 -1.34375 0.546875 0 L 14.753906 0 C 17.195312 0 18.292969 -3.039062 18.292969 -5.035156 C 18.292969 -14.652344 4.835938 -16.046875 4.835938 -20.984375 C 4.835938 -21.230469 5.035156 -21.980469 5.730469 -21.980469 C 8.175781 -21.980469 22.179688 -12.808594 22.179688 -6.179688 C 22.179688 -3.6875 21.332031 -2.941406 21.332031 -1.144531 C 21.332031 -0.300781 22.128906 0 22.777344 0 L 33.542969 0 C 35.984375 0 36.832031 -1.34375 36.832031 -4.535156 C 36.832031 -12.410156 26.265625 -16.046875 18.9375 -18.789062 C 13.15625 -20.984375 6.878906 -23.574219 6.878906 -26.265625 C 6.878906 -27.0625 7.226562 -27.859375 8.574219 -27.859375 C 11.414062 -27.859375 13.90625 -19.636719 23.375 -19.636719 C 33.34375 -19.636719 37.332031 -27.710938 37.332031 -35.4375 C 37.332031 -43.511719 32.695312 -49.839844 20.585938 -49.839844 Z M 17.695312 -39.425781 C 24.570312 -39.425781 34.738281 -38.976562 34.738281 -34.488281 C 34.738281 -30.003906 26.613281 -29.554688 19.738281 -29.554688 C 12.859375 -29.554688 4.785156 -30.003906 4.785156 -34.488281 C 4.785156 -38.976562 12.609375 -39.425781 17.695312 -39.425781 Z M 17.695312 -39.425781 "/></g></g></g><g fill="#000000" fill-opacity="1"><g transform="translate(134.191803, 90.443336)"><g><path d="M 1.246094 -24.921875 C 1.246094 -7.726562 10.265625 0.746094 21.429688 0.746094 C 32.046875 0.746094 38.027344 -8.820312 38.027344 -15.601562 C 38.027344 -17.894531 37.378906 -18.292969 36.78125 -18.292969 C 34.339844 -18.292969 34.089844 -10.914062 25.367188 -10.914062 C 18.441406 -10.914062 11.613281 -17.34375 8.621094 -26.515625 C 8.324219 -27.511719 8.074219 -29.304688 9.667969 -29.304688 C 13.804688 -29.304688 17.195312 -20.285156 24.570312 -20.285156 C 30.703125 -20.285156 33.09375 -25.320312 33.09375 -28.660156 C 33.09375 -30.253906 32.644531 -31.5 31.847656 -31.5 C 31 -31.5 30.503906 -29.554688 28.210938 -29.554688 C 24.320312 -29.554688 19.9375 -33.640625 15.003906 -33.640625 C 10.566406 -33.640625 9.417969 -31.050781 7.925781 -31.050781 C 6.578125 -31.050781 6.976562 -35.785156 6.976562 -36.734375 C 6.976562 -38.578125 7.726562 -42.761719 11.066406 -42.761719 C 17.542969 -42.761719 20.785156 -36.78125 29.65625 -36.78125 C 33.242188 -36.78125 35.636719 -41.019531 36.632812 -43.363281 C 38.027344 -46.601562 38.726562 -50.589844 36.78125 -50.589844 C 35.238281 -50.589844 34.242188 -48.59375 30.800781 -48.59375 C 26.265625 -48.59375 23.226562 -50.589844 19.339844 -50.589844 C 7.078125 -50.589844 1.246094 -37.28125 1.246094 -24.921875 Z M 1.246094 -24.921875 "/></g></g></g><g fill="#000000" fill-opacity="1"><g transform="translate(173.215894, 90.443336)"><g><path d="M 0.5 0 L 17.195312 0 C 15.847656 -1.34375 15.449219 -3.039062 15.449219 -5.882812 L 15.449219 -43.960938 C 15.449219 -46.800781 15.847656 -48.496094 17.195312 -49.839844 L 0.5 -49.839844 C 1.84375 -48.496094 2.242188 -46.800781 2.242188 -43.960938 L 2.242188 -5.882812 C 2.242188 -3.039062 1.84375 -1.34375 0.5 0 Z M 0.5 0 "/></g></g></g><g fill="#000000" fill-opacity="1"><g transform="translate(190.908821, 90.443336)"><g><path d="M 0.5 0 L 10.914062 0 C 13.855469 0 16.449219 -1.34375 16.449219 -4.386719 C 16.449219 -11.5625 5.132812 -18.9375 5.132812 -34.886719 C 5.132812 -37.179688 5.332031 -40.320312 6.976562 -40.320312 C 8.773438 -40.320312 10.566406 -34.390625 12.410156 -28.90625 C 13.507812 -25.617188 16.597656 -16.945312 17.894531 -13.007812 C 20.085938 -6.28125 22.03125 0 27.8125 0 L 40.871094 0 C 39.523438 -1.34375 39.125 -3.039062 39.125 -5.882812 L 39.125 -43.960938 C 39.125 -46.800781 39.523438 -48.496094 40.871094 -49.839844 L 30.453125 -49.839844 C 27.511719 -49.839844 24.921875 -48.496094 24.921875 -45.453125 C 24.921875 -38.277344 36.234375 -30.902344 36.234375 -14.953125 C 36.234375 -12.660156 36.035156 -9.519531 34.390625 -9.519531 C 32.597656 -9.519531 30.800781 -15.449219 28.957031 -20.933594 L 24.273438 -34.886719 C 19.785156 -48.246094 18.839844 -49.839844 15.351562 -49.839844 L 0.5 -49.839844 C 1.84375 -48.496094 2.242188 -46.800781 2.242188 -43.960938 L 2.242188 -5.882812 C 2.242188 -3.039062 1.84375 -1.34375 0.5 0 Z M 0.5 0 "/></g></g></g></svg>