<svg class="w-[90px] h-[50px] inline fill-white" xmlns="http://www.w3.org/2000/svg" xmlns:xlink="http://www.w3.org/1999/xlink" width="336" zoomAndPan="magnify" viewBox="0 0 252 72" height="96" preserveAspectRatio="xMidYMid meet" version="1.0"><defs><g/></defs><g fill="#000000" fill-opacity="1"><g transform="translate(10.628458, 63.047792)"><g><path d="M 17.257812 0.8125 C 32.351562 0.8125 38.679688 -10.117188 38.679688 -19.746094 C 38.679688 -28.078125 32.515625 -34.082031 23.425781 -34.949219 C 15.257812 -35.707031 5.03125 -36.789062 5.03125 -42.628906 C 5.03125 -44.6875 6.652344 -46.417969 8.65625 -46.417969 C 15.90625 -46.417969 20.882812 -39.925781 28.835938 -39.925781 C 35.433594 -39.925781 40.359375 -54.910156 36.570312 -54.910156 C 34.894531 -54.910156 33.8125 -52.746094 30.078125 -52.746094 C 25.15625 -52.746094 21.855469 -54.910156 17.636719 -54.910156 C 8.546875 -54.910156 0.917969 -47.554688 0.917969 -38.464844 C 0.917969 -27.050781 10.117188 -23.804688 20.828125 -20.503906 C 26.183594 -18.828125 31 -16.230469 31 -10.710938 C 31 -6.546875 27.265625 -3.410156 23.101562 -3.410156 C 14.660156 -3.410156 15.636719 -11.253906 16.390625 -16.933594 C 16.664062 -18.988281 15.257812 -20.070312 13.632812 -20.125 C 10.820312 -20.234375 0.539062 -14.878906 0.539062 -11.632812 C 0.539062 -5.140625 8.222656 0.8125 17.257812 0.8125 Z M 17.257812 0.8125 "/></g></g></g><g fill-white fill-opacity="1"><g transform="translate(50.66106, 63.047792)"><g><path d="M 1.351562 -27.050781 C 1.351562 -8.386719 11.144531 0.8125 23.261719 0.8125 C 34.785156 0.8125 41.277344 -9.574219 41.277344 -16.933594 C 41.277344 -19.421875 40.574219 -19.855469 39.925781 -19.855469 C 37.273438 -19.855469 37.003906 -11.847656 27.535156 -11.847656 C 20.015625 -11.847656 12.605469 -18.828125 9.359375 -28.78125 C 9.035156 -29.863281 8.765625 -31.8125 10.496094 -31.8125 C 14.984375 -31.8125 18.664062 -22.019531 26.671875 -22.019531 C 33.324219 -22.019531 35.921875 -27.484375 35.921875 -31.105469 C 35.921875 -32.839844 35.433594 -34.191406 34.570312 -34.191406 C 33.648438 -34.191406 33.109375 -32.082031 30.621094 -32.082031 C 26.402344 -32.082031 21.640625 -36.515625 16.285156 -36.515625 C 11.46875 -36.515625 10.226562 -33.703125 8.601562 -33.703125 C 7.140625 -33.703125 7.574219 -38.84375 7.574219 -39.871094 C 7.574219 -41.875 8.386719 -46.417969 12.011719 -46.417969 C 19.042969 -46.417969 22.558594 -39.925781 32.1875 -39.925781 C 36.085938 -39.925781 38.679688 -44.523438 39.761719 -47.066406 C 41.277344 -50.582031 42.035156 -54.910156 39.925781 -54.910156 C 38.25 -54.910156 37.167969 -52.746094 33.433594 -52.746094 C 28.511719 -52.746094 25.210938 -54.910156 20.992188 -54.910156 C 7.683594 -54.910156 1.351562 -40.464844 1.351562 -27.050781 Z M 1.351562 -27.050781 "/></g></g></g><g fill-white fill-opacity="1"><g transform="translate(93.019876, 63.047792)"><g><path d="M 0.539062 -54.101562 C 2 -52.640625 2.433594 -50.800781 2.433594 -47.714844 L 2.433594 -27.050781 L 2.488281 -15.636719 L 2.488281 -6.382812 C 2.488281 -3.300781 2.054688 -1.460938 0.59375 0 L 16.011719 0 C 18.664062 0 19.855469 -3.300781 19.855469 -5.464844 C 19.855469 -15.90625 5.246094 -17.421875 5.246094 -22.777344 C 5.246094 -23.046875 5.464844 -23.859375 6.222656 -23.859375 C 8.871094 -23.859375 24.074219 -13.902344 24.074219 -6.707031 C 24.074219 -4.003906 23.15625 -3.191406 23.15625 -1.246094 C 23.15625 -0.324219 24.019531 0 24.722656 0 L 36.410156 0 C 39.058594 0 39.980469 -1.460938 39.980469 -4.921875 C 39.980469 -13.472656 28.511719 -17.421875 20.558594 -20.394531 C 14.28125 -22.777344 7.464844 -25.589844 7.464844 -28.511719 C 7.464844 -29.375 7.84375 -30.242188 9.304688 -30.242188 C 12.390625 -30.242188 15.09375 -21.316406 25.371094 -21.316406 C 36.191406 -21.316406 40.519531 -30.078125 40.519531 -38.464844 C 40.519531 -47.230469 35.488281 -54.101562 22.34375 -54.101562 Z M 19.207031 -42.792969 C 26.671875 -42.792969 37.707031 -42.304688 37.707031 -37.4375 C 37.707031 -32.566406 28.890625 -32.082031 21.421875 -32.082031 C 13.957031 -32.082031 5.195312 -32.566406 5.195312 -37.4375 C 5.195312 -42.304688 13.6875 -42.792969 19.207031 -42.792969 Z M 19.207031 -42.792969 "/></g></g></g><g fill-white fill-opacity="1"><g transform="translate(134.891816, 63.047792)"><g><path d="M 1.351562 -27.050781 C 1.351562 -8.386719 11.144531 0.8125 23.261719 0.8125 C 34.785156 0.8125 41.277344 -9.574219 41.277344 -16.933594 C 41.277344 -19.421875 40.574219 -19.855469 39.925781 -19.855469 C 37.273438 -19.855469 37.003906 -11.847656 27.535156 -11.847656 C 20.015625 -11.847656 12.605469 -18.828125 9.359375 -28.78125 C 9.035156 -29.863281 8.765625 -31.8125 10.496094 -31.8125 C 14.984375 -31.8125 18.664062 -22.019531 26.671875 -22.019531 C 33.324219 -22.019531 35.921875 -27.484375 35.921875 -31.105469 C 35.921875 -32.839844 35.433594 -34.191406 34.570312 -34.191406 C 33.648438 -34.191406 33.109375 -32.082031 30.621094 -32.082031 C 26.402344 -32.082031 21.640625 -36.515625 16.285156 -36.515625 C 11.46875 -36.515625 10.226562 -33.703125 8.601562 -33.703125 C 7.140625 -33.703125 7.574219 -38.84375 7.574219 -39.871094 C 7.574219 -41.875 8.386719 -46.417969 12.011719 -46.417969 C 19.042969 -46.417969 22.558594 -39.925781 32.1875 -39.925781 C 36.085938 -39.925781 38.679688 -44.523438 39.761719 -47.066406 C 41.277344 -50.582031 42.035156 -54.910156 39.925781 -54.910156 C 38.25 -54.910156 37.167969 -52.746094 33.433594 -52.746094 C 28.511719 -52.746094 25.210938 -54.910156 20.992188 -54.910156 C 7.683594 -54.910156 1.351562 -40.464844 1.351562 -27.050781 Z M 1.351562 -27.050781 "/></g></g></g><g fill-white fill-opacity="1"><g transform="translate(177.250625, 63.047792)"><g><path d="M 0.539062 0 L 18.664062 0 C 17.203125 -1.460938 16.769531 -3.300781 16.769531 -6.382812 L 16.769531 -47.714844 C 16.769531 -50.800781 17.203125 -52.640625 18.664062 -54.101562 L 0.539062 -54.101562 C 2 -52.640625 2.433594 -50.800781 2.433594 -47.714844 L 2.433594 -6.382812 C 2.433594 -3.300781 2 -1.460938 0.539062 0 Z M 0.539062 0 "/></g></g></g><g fill-white fill-opacity="1"><g transform="translate(196.455462, 63.047792)"><g><path d="M 0.539062 0 L 11.847656 0 C 15.039062 0 17.851562 -1.460938 17.851562 -4.761719 C 17.851562 -12.550781 5.574219 -20.558594 5.574219 -37.871094 C 5.574219 -40.359375 5.789062 -43.765625 7.574219 -43.765625 C 9.523438 -43.765625 11.46875 -37.328125 13.472656 -31.378906 C 14.660156 -27.808594 18.015625 -18.394531 19.421875 -14.121094 C 21.800781 -6.816406 23.910156 0 30.1875 0 L 44.363281 0 C 42.902344 -1.460938 42.46875 -3.300781 42.46875 -6.382812 L 42.46875 -47.714844 C 42.46875 -50.800781 42.902344 -52.640625 44.363281 -54.101562 L 33.054688 -54.101562 C 29.863281 -54.101562 27.050781 -52.640625 27.050781 -49.339844 C 27.050781 -41.546875 39.332031 -33.542969 39.332031 -16.230469 C 39.332031 -13.742188 39.113281 -10.332031 37.328125 -10.332031 C 35.382812 -10.332031 33.433594 -16.769531 31.433594 -22.722656 L 26.347656 -37.871094 C 21.476562 -52.367188 20.449219 -54.101562 16.664062 -54.101562 L 0.539062 -54.101562 C 2 -52.640625 2.433594 -50.800781 2.433594 -47.714844 L 2.433594 -6.382812 C 2.433594 -3.300781 2 -1.460938 0.539062 0 Z M 0.539062 0 "/></g></g></g></svg>